<svg xmlns="http://www.w3.org/2000/svg" viewBox="0 0 165.52 105.97">
  <path fill="#231F20" d="M150.7,0H14.82C6.64,0,0,6.64,0,14.82V91.15c0,8.18,6.64,14.82,14.82,14.82H150.7c8.18,0,14.82-6.64,14.82-14.82V14.82C165.52,6.64,158.88,0,150.7,0Z"/>
  <path fill="#FFF" d="M41.32,27.05c2.33-2.81,3.9-6.71,3.47-10.61-3.35.14-7.41,2.23-9.82,5.04-2.15,2.49-4.04,6.49-3.53,10.31,3.74.29,7.56-1.89,9.88-4.74"/>
  <path fill="#FFF" d="M44.79,43.37c-5.43-.32-10.07,3.09-12.67,3.09-2.6,0-6.61-2.95-10.87-2.87-5.59.08-10.75,3.25-13.62,8.26-5.81,10.07-1.49,24.99,4.17,33.17,2.76,4,6.05,8.5,10.39,8.34,4.16-.17,5.74-2.69,10.76-2.69s6.44,2.69,10.84,2.61c4.48-.08,7.31-4.07,10.05-8.09,3.17-4.63,4.47-9.12,4.55-9.36-.1-.04-8.73-3.35-8.82-13.3-.08-8.31,6.79-12.29,7.1-12.49-3.9-5.72-9.93-6.35-12.03-6.51"/>
</svg>
