<svg xmlns="http://www.w3.org/2000/svg" viewBox="0 0 64 64">
  <path fill="#F7931A" d="M63.04,39.74c-4.27,17.14-21.63,27.58-38.77,23.31C7.13,58.78-3.31,41.42.96,24.28,5.23,7.14,22.59-3.3,39.73.97,56.87,5.24,67.31,22.6,63.04,39.74Z"/>
  <path fill="#FFF" d="M46.11,27.44c.64-4.27-2.61-6.57-7.06-8.11l1.44-5.78-3.52-.88-1.4,5.62c-.93-.23-1.88-.45-2.82-.66l1.41-5.66-3.52-.88-1.44,5.78c-.77-.17-1.52-.35-2.25-.53l0-.02-4.86-1.21-.94,3.76s2.61.6,2.55.64c1.42.35,1.68,1.3,1.64,2.04l-1.64,6.58c.1.02.22.06.36.12l-.37-.09-2.3,9.21c-.17.43-.61,1.08-1.6.83.04.05-2.55-.64-2.55-.64l-1.74,4.02,4.58,1.14c.85.21,1.69.44,2.51.65l-1.46,5.84,3.52.88,1.44-5.79c.96.26,1.89.5,2.8.73l-1.43,5.75,3.52.88,1.46-5.83c6,1.13,10.52.68,12.41-4.76,1.53-4.39-.08-6.92-3.22-8.57,2.29-.53,4.02-2.03,4.48-5.13ZM38.82,37.86c-1.09,4.39-8.46,2.02-10.84,1.42l1.93-7.75c2.38.59,10,1.77,8.91,6.33Zm1.09-11.38c-1,4-7.11,1.97-9.1,1.47l1.75-7.03c1.99.5,8.41,1.42,7.35,5.56Z"/>
</svg>
