<svg xmlns="http://www.w3.org/2000/svg" viewBox="0 0 437 174">
  <path fill="#5F6368" d="M206.2,84.58v50.75h-16V8h42.7a38.61,38.61,0,0,1,27.65,10.85A34.88,34.88,0,0,1,272,47.3a34.72,34.72,0,0,1-11.55,28.35q-11.2,10.68-27.65,10.93Zm0-60.68v44.77h27a21.28,21.28,0,0,0,15.93-6.48,21.36,21.36,0,0,0,0-31.81,21.28,21.28,0,0,0-15.93-6.48h-27Z"/>
  <path fill="#5F6368" d="M309.1,46.19A45,45,0,0,1,324.22,26,49.61,49.61,0,0,1,348.9,18.66V34.93a33.73,33.73,0,0,0-16.71,5.19A30.56,30.56,0,0,0,321,52.84V135.33H305.1V18.66h4.13Z"/>
  <path fill="#5F6368" d="M436.85,128a53.51,53.51,0,0,1-36.54-12.86q-14.69-12.85-14.68-32.11V80.74q0-19.25,14.68-32.11a53.51,53.51,0,0,1,36.54-12.86h.3v15.77h-.3a37.3,37.3,0,0,0-25.61,8.91q-10.07,8.91-10.06,22.72v1.72q0,13.81,10.06,22.72a37.3,37.3,0,0,0,25.61,8.91h.3v15.77h-.3Z"/>
  <path fill="#4285F4" d="M141.37,73.58a85.32,85.32,0,0,0-1.24-14.64H72.67v27.73h38.94a33.33,33.33,0,0,1-14.44,21.88v18h23.21c13.62-12.53,21.45-31.05,21.45-52.97Z"/>
  <path fill="#34A853" d="M72.67,144c19.43,0,35.79-6.38,47.72-17.38l-23.21-18C90.05,113.75,82,116.72,72.67,116.72c-19.07,0-35.17-12.79-40.96-30.19H7.06v18.58C19.02,127.19,44.32,144,72.67,144Z"/>
  <path fill="#FBBC04" d="M31.71,86.53a42.62,42.62,0,0,1,0-27.25V40.7H7.06a71.77,71.77,0,0,0,0,64.41Z"/>
  <path fill="#EA4335" d="M72.67,29.09c10.75,0,20.39,3.7,27.95,10.9L122.43,18.4C109.13,5.76,92.77,0,72.67,0,44.32,0,19.02,16.81,7.06,38.89L31.71,57.47C37.5,40.07,53.6,29.09,72.67,29.09Z"/>
</svg>
