<svg xmlns="http://www.w3.org/2000/svg" viewBox="0 0 512 512">
  <defs>
    <linearGradient id="a" x1="0%" y1="0%" x2="100%" y2="100%">
      <stop offset="0%" stop-color="#FFD700"/>
      <stop offset="100%" stop-color="#FFA500"/>
    </linearGradient>
  </defs>
  <circle cx="256" cy="256" r="256" fill="url(#a)"/>
  <path fill="#fff" d="M256 108c-81.74 0-148 66.26-148 148s66.26 148 148 148 148-66.26 148-148S337.74 108 256 108zm0 276c-70.69 0-128-57.31-128-128s57.31-128 128-128 128 57.31 128 128-57.31 128-128 128z"/>
  <path fill="#fff" d="M288 260.11V196c0-11.046-8.954-20-20-20h-24c-11.046 0-20 8.954-20 20s8.954 20 20 20h4v44.11c-19.937 11.53-28.263 36.261-19.627 57.664 8.636 21.403 32.409 32.89 54.627 26.349 22.219-6.541 35.964-29.061 31.619-51.912C311.273 269.361 301.145 260.58 288 260.11z"/>
</svg>
